<mxfile host="app.diagrams.net" modified="2023-03-18T17:53:16.629Z" agent="5.0 (X11; Linux x86_64) AppleWebKit/537.36 (KHTML, like Gecko) Chrome/110.0.0.0 Safari/537.36" etag="p3Twg3fA0VYkWHLzyWXU" version="21.0.6" type="github">
  <diagram name="Page-1" id="H-ni-HpC8lPH4T10W9u9">
    <mxGraphModel dx="1372" dy="927" grid="1" gridSize="10" guides="1" tooltips="1" connect="1" arrows="1" fold="1" page="1" pageScale="1" pageWidth="850" pageHeight="1100" math="0" shadow="0">
      <root>
        <mxCell id="0" />
        <mxCell id="1" parent="0" />
        <mxCell id="Ak-s-6grsqpdPACAX_Eb-9" style="edgeStyle=orthogonalEdgeStyle;rounded=0;orthogonalLoop=1;jettySize=auto;html=1;exitX=0;exitY=0.5;exitDx=0;exitDy=0;entryX=0;entryY=0.5;entryDx=0;entryDy=0;strokeColor=#0000CC;fontColor=#1A1A1A;strokeWidth=3;endSize=1;" edge="1" parent="1" source="Ak-s-6grsqpdPACAX_Eb-1" target="Ak-s-6grsqpdPACAX_Eb-6">
          <mxGeometry relative="1" as="geometry" />
        </mxCell>
        <mxCell id="Ak-s-6grsqpdPACAX_Eb-1" value="" style="whiteSpace=wrap;html=1;labelBackgroundColor=none;fillColor=#5D7F99;strokeColor=#D0CEE2;fontColor=#1A1A1A;" vertex="1" parent="1">
          <mxGeometry x="118" y="83" width="4" height="200" as="geometry" />
        </mxCell>
        <mxCell id="Ak-s-6grsqpdPACAX_Eb-11" style="edgeStyle=orthogonalEdgeStyle;rounded=0;orthogonalLoop=1;jettySize=auto;html=1;exitX=0.5;exitY=1;exitDx=0;exitDy=0;entryX=0.5;entryY=0;entryDx=0;entryDy=0;strokeColor=#CC0066;fontColor=#1A1A1A;strokeWidth=3;endSize=1;" edge="1" parent="1" source="Ak-s-6grsqpdPACAX_Eb-6" target="Ak-s-6grsqpdPACAX_Eb-7">
          <mxGeometry relative="1" as="geometry" />
        </mxCell>
        <mxCell id="Ak-s-6grsqpdPACAX_Eb-29" style="edgeStyle=orthogonalEdgeStyle;rounded=0;orthogonalLoop=1;jettySize=auto;html=1;exitX=1;exitY=0.5;exitDx=0;exitDy=0;strokeColor=#CCCCFF;fontColor=#1A1A1A;entryX=0;entryY=0.5;entryDx=0;entryDy=0;strokeWidth=3;endSize=1;" edge="1" parent="1" source="Ak-s-6grsqpdPACAX_Eb-6" target="Ak-s-6grsqpdPACAX_Eb-35">
          <mxGeometry relative="1" as="geometry">
            <mxPoint x="450" y="183" as="targetPoint" />
          </mxGeometry>
        </mxCell>
        <mxCell id="Ak-s-6grsqpdPACAX_Eb-6" value="" style="whiteSpace=wrap;html=1;labelBackgroundColor=none;fillColor=#5D7F99;strokeColor=#D0CEE2;fontColor=#1A1A1A;" vertex="1" parent="1">
          <mxGeometry x="157" y="83" width="12" height="200" as="geometry" />
        </mxCell>
        <mxCell id="Ak-s-6grsqpdPACAX_Eb-13" style="edgeStyle=orthogonalEdgeStyle;rounded=0;orthogonalLoop=1;jettySize=auto;html=1;exitX=1;exitY=0.5;exitDx=0;exitDy=0;entryX=0;entryY=0.5;entryDx=0;entryDy=0;strokeColor=#0000CC;fontColor=#1A1A1A;strokeWidth=3;endSize=1;" edge="1" parent="1" source="Ak-s-6grsqpdPACAX_Eb-7" target="Ak-s-6grsqpdPACAX_Eb-12">
          <mxGeometry relative="1" as="geometry" />
        </mxCell>
        <mxCell id="Ak-s-6grsqpdPACAX_Eb-7" value="" style="whiteSpace=wrap;html=1;labelBackgroundColor=none;fillColor=#5D7F99;strokeColor=#D0CEE2;fontColor=#1A1A1A;" vertex="1" parent="1">
          <mxGeometry x="157" y="317" width="12" height="100" as="geometry" />
        </mxCell>
        <mxCell id="Ak-s-6grsqpdPACAX_Eb-16" style="edgeStyle=orthogonalEdgeStyle;rounded=0;orthogonalLoop=1;jettySize=auto;html=1;exitX=0.5;exitY=1;exitDx=0;exitDy=0;entryX=0.5;entryY=0;entryDx=0;entryDy=0;strokeColor=#CC0066;fontColor=#1A1A1A;strokeWidth=3;endSize=1;" edge="1" parent="1" source="Ak-s-6grsqpdPACAX_Eb-12" target="Ak-s-6grsqpdPACAX_Eb-14">
          <mxGeometry relative="1" as="geometry" />
        </mxCell>
        <mxCell id="Ak-s-6grsqpdPACAX_Eb-22" style="edgeStyle=orthogonalEdgeStyle;rounded=0;orthogonalLoop=1;jettySize=auto;html=1;exitX=1;exitY=0.5;exitDx=0;exitDy=0;entryX=0;entryY=0.5;entryDx=0;entryDy=0;strokeColor=#CCCCFF;fontColor=#1A1A1A;strokeWidth=3;endSize=1;" edge="1" parent="1" source="Ak-s-6grsqpdPACAX_Eb-12" target="Ak-s-6grsqpdPACAX_Eb-20">
          <mxGeometry relative="1" as="geometry" />
        </mxCell>
        <mxCell id="Ak-s-6grsqpdPACAX_Eb-12" value="" style="whiteSpace=wrap;html=1;labelBackgroundColor=none;fillColor=#5D7F99;strokeColor=#D0CEE2;fontColor=#1A1A1A;" vertex="1" parent="1">
          <mxGeometry x="249" y="317" width="24" height="100" as="geometry" />
        </mxCell>
        <mxCell id="Ak-s-6grsqpdPACAX_Eb-17" style="edgeStyle=orthogonalEdgeStyle;rounded=0;orthogonalLoop=1;jettySize=auto;html=1;exitX=1;exitY=0.5;exitDx=0;exitDy=0;entryX=0;entryY=0.5;entryDx=0;entryDy=0;strokeColor=#0000CC;fontColor=#1A1A1A;strokeWidth=3;endSize=1;" edge="1" parent="1" source="Ak-s-6grsqpdPACAX_Eb-14" target="Ak-s-6grsqpdPACAX_Eb-15">
          <mxGeometry relative="1" as="geometry" />
        </mxCell>
        <mxCell id="Ak-s-6grsqpdPACAX_Eb-14" value="" style="whiteSpace=wrap;html=1;labelBackgroundColor=none;fillColor=#5D7F99;strokeColor=#D0CEE2;fontColor=#1A1A1A;" vertex="1" parent="1">
          <mxGeometry x="249" y="449" width="24" height="50" as="geometry" />
        </mxCell>
        <mxCell id="Ak-s-6grsqpdPACAX_Eb-19" style="edgeStyle=orthogonalEdgeStyle;rounded=0;orthogonalLoop=1;jettySize=auto;html=1;exitX=1;exitY=0.5;exitDx=0;exitDy=0;entryX=0;entryY=0.5;entryDx=0;entryDy=0;strokeColor=#0000CC;fontColor=#1A1A1A;strokeWidth=3;endSize=1;" edge="1" parent="1" source="Ak-s-6grsqpdPACAX_Eb-15" target="Ak-s-6grsqpdPACAX_Eb-18">
          <mxGeometry relative="1" as="geometry" />
        </mxCell>
        <mxCell id="Ak-s-6grsqpdPACAX_Eb-15" value="" style="whiteSpace=wrap;html=1;labelBackgroundColor=none;fillColor=#5D7F99;strokeColor=#D0CEE2;fontColor=#1A1A1A;" vertex="1" parent="1">
          <mxGeometry x="351" y="449" width="48" height="50" as="geometry" />
        </mxCell>
        <mxCell id="Ak-s-6grsqpdPACAX_Eb-23" style="edgeStyle=orthogonalEdgeStyle;rounded=0;orthogonalLoop=1;jettySize=auto;html=1;exitX=0.5;exitY=0;exitDx=0;exitDy=0;entryX=0.5;entryY=1;entryDx=0;entryDy=0;strokeColor=#00CC00;fontColor=#1A1A1A;strokeWidth=3;endSize=1;" edge="1" parent="1" source="Ak-s-6grsqpdPACAX_Eb-18" target="Ak-s-6grsqpdPACAX_Eb-21">
          <mxGeometry relative="1" as="geometry" />
        </mxCell>
        <mxCell id="Ak-s-6grsqpdPACAX_Eb-18" value="" style="whiteSpace=wrap;html=1;labelBackgroundColor=none;fillColor=#5D7F99;strokeColor=#D0CEE2;fontColor=#1A1A1A;" vertex="1" parent="1">
          <mxGeometry x="481" y="449" width="24" height="50" as="geometry" />
        </mxCell>
        <mxCell id="Ak-s-6grsqpdPACAX_Eb-20" value="" style="whiteSpace=wrap;html=1;labelBackgroundColor=none;fillColor=#CCCCFF;strokeColor=#D0CEE2;fontColor=#1A1A1A;opacity=50;" vertex="1" parent="1">
          <mxGeometry x="457" y="317" width="24" height="100" as="geometry" />
        </mxCell>
        <mxCell id="Ak-s-6grsqpdPACAX_Eb-26" style="edgeStyle=orthogonalEdgeStyle;rounded=0;orthogonalLoop=1;jettySize=auto;html=1;exitX=1;exitY=0.5;exitDx=0;exitDy=0;entryX=0;entryY=0.5;entryDx=0;entryDy=0;strokeColor=#0000CC;fontColor=#1A1A1A;strokeWidth=3;endSize=1;" edge="1" parent="1" target="Ak-s-6grsqpdPACAX_Eb-24">
          <mxGeometry relative="1" as="geometry">
            <mxPoint x="506" y="367" as="sourcePoint" />
          </mxGeometry>
        </mxCell>
        <mxCell id="Ak-s-6grsqpdPACAX_Eb-21" value="" style="whiteSpace=wrap;html=1;labelBackgroundColor=none;fillColor=#5D7F99;strokeColor=#D0CEE2;fontColor=#1A1A1A;" vertex="1" parent="1">
          <mxGeometry x="481" y="317" width="24" height="100" as="geometry" />
        </mxCell>
        <mxCell id="Ak-s-6grsqpdPACAX_Eb-28" style="edgeStyle=orthogonalEdgeStyle;rounded=0;orthogonalLoop=1;jettySize=auto;html=1;exitX=0.5;exitY=0;exitDx=0;exitDy=0;entryX=0.5;entryY=1;entryDx=0;entryDy=0;strokeColor=#00CC00;fontColor=#1A1A1A;strokeWidth=3;endSize=1;" edge="1" parent="1" source="Ak-s-6grsqpdPACAX_Eb-24" target="Ak-s-6grsqpdPACAX_Eb-27">
          <mxGeometry relative="1" as="geometry" />
        </mxCell>
        <mxCell id="Ak-s-6grsqpdPACAX_Eb-24" value="" style="whiteSpace=wrap;html=1;labelBackgroundColor=none;fillColor=#5D7F99;strokeColor=#D0CEE2;fontColor=#1A1A1A;" vertex="1" parent="1">
          <mxGeometry x="581" y="317" width="12" height="100" as="geometry" />
        </mxCell>
        <mxCell id="Ak-s-6grsqpdPACAX_Eb-38" style="edgeStyle=orthogonalEdgeStyle;rounded=0;orthogonalLoop=1;jettySize=auto;html=1;exitX=1;exitY=0.5;exitDx=0;exitDy=0;entryX=0;entryY=0.5;entryDx=0;entryDy=0;strokeColor=#0000CC;fontColor=#1A1A1A;strokeWidth=3;endSize=1;" edge="1" parent="1" source="Ak-s-6grsqpdPACAX_Eb-27" target="Ak-s-6grsqpdPACAX_Eb-37">
          <mxGeometry relative="1" as="geometry" />
        </mxCell>
        <mxCell id="Ak-s-6grsqpdPACAX_Eb-27" value="" style="whiteSpace=wrap;html=1;labelBackgroundColor=none;fillColor=#5D7F99;strokeColor=#D0CEE2;fontColor=#1A1A1A;" vertex="1" parent="1">
          <mxGeometry x="581" y="83" width="12" height="200" as="geometry" />
        </mxCell>
        <mxCell id="Ak-s-6grsqpdPACAX_Eb-35" value="" style="whiteSpace=wrap;html=1;labelBackgroundColor=none;fillColor=#CCCCFF;strokeColor=#D0CEE2;fontColor=#1A1A1A;opacity=50;" vertex="1" parent="1">
          <mxGeometry x="569" y="83" width="12" height="200" as="geometry" />
        </mxCell>
        <mxCell id="Ak-s-6grsqpdPACAX_Eb-40" style="edgeStyle=orthogonalEdgeStyle;rounded=0;orthogonalLoop=1;jettySize=auto;html=1;exitX=1;exitY=0.5;exitDx=0;exitDy=0;entryX=0;entryY=0.5;entryDx=0;entryDy=0;strokeColor=#0000CC;fontColor=#1A1A1A;strokeWidth=3;endSize=1;" edge="1" parent="1" source="Ak-s-6grsqpdPACAX_Eb-37" target="Ak-s-6grsqpdPACAX_Eb-39">
          <mxGeometry relative="1" as="geometry" />
        </mxCell>
        <mxCell id="Ak-s-6grsqpdPACAX_Eb-37" value="" style="whiteSpace=wrap;html=1;labelBackgroundColor=none;fillColor=#5D7F99;strokeColor=#D0CEE2;fontColor=#1A1A1A;" vertex="1" parent="1">
          <mxGeometry x="645" y="83" width="12" height="200" as="geometry" />
        </mxCell>
        <mxCell id="Ak-s-6grsqpdPACAX_Eb-39" value="" style="whiteSpace=wrap;html=1;labelBackgroundColor=none;fillColor=#5D7F99;strokeColor=#D0CEE2;fontColor=#1A1A1A;" vertex="1" parent="1">
          <mxGeometry x="685" y="83" width="2" height="200" as="geometry" />
        </mxCell>
        <mxCell id="Ak-s-6grsqpdPACAX_Eb-41" style="edgeStyle=orthogonalEdgeStyle;rounded=0;orthogonalLoop=1;jettySize=auto;html=1;exitX=0.5;exitY=0;exitDx=0;exitDy=0;strokeColor=#0000CC;fontColor=#1A1A1A;strokeWidth=3;endSize=1;" edge="1" parent="1">
          <mxGeometry relative="1" as="geometry">
            <mxPoint x="646" y="433" as="sourcePoint" />
            <mxPoint x="674" y="433" as="targetPoint" />
          </mxGeometry>
        </mxCell>
        <mxCell id="Ak-s-6grsqpdPACAX_Eb-44" style="edgeStyle=orthogonalEdgeStyle;rounded=0;orthogonalLoop=1;jettySize=auto;html=1;exitX=0.5;exitY=0;exitDx=0;exitDy=0;entryX=0.5;entryY=1;entryDx=0;entryDy=0;strokeColor=#00CC00;fontColor=#1A1A1A;strokeWidth=3;endSize=1;" edge="1" parent="1">
          <mxGeometry relative="1" as="geometry">
            <mxPoint x="661" y="487" as="sourcePoint" />
            <mxPoint x="661" y="461" as="targetPoint" />
          </mxGeometry>
        </mxCell>
        <mxCell id="Ak-s-6grsqpdPACAX_Eb-45" style="edgeStyle=orthogonalEdgeStyle;rounded=0;orthogonalLoop=1;jettySize=auto;html=1;strokeColor=#CCCCFF;fontColor=#1A1A1A;strokeWidth=3;endSize=1;" edge="1" parent="1">
          <mxGeometry relative="1" as="geometry">
            <mxPoint x="641" y="513" as="sourcePoint" />
            <mxPoint x="671" y="513" as="targetPoint" />
          </mxGeometry>
        </mxCell>
        <mxCell id="Ak-s-6grsqpdPACAX_Eb-46" style="edgeStyle=orthogonalEdgeStyle;rounded=0;orthogonalLoop=1;jettySize=auto;html=1;exitX=0.5;exitY=1;exitDx=0;exitDy=0;entryX=0.5;entryY=0;entryDx=0;entryDy=0;strokeColor=#CC0066;fontColor=#1A1A1A;strokeWidth=3;endSize=1;" edge="1" parent="1">
          <mxGeometry relative="1" as="geometry">
            <mxPoint x="661" y="383" as="sourcePoint" />
            <mxPoint x="661" y="409" as="targetPoint" />
          </mxGeometry>
        </mxCell>
        <mxCell id="Ak-s-6grsqpdPACAX_Eb-47" value="MaxPool 2D 2x2" style="text;html=1;align=center;verticalAlign=middle;resizable=0;points=[];autosize=1;strokeColor=none;fillColor=none;fontColor=#1A1A1A;fontSize=14;fontStyle=1" vertex="1" parent="1">
          <mxGeometry x="671" y="374" width="130" height="30" as="geometry" />
        </mxCell>
        <mxCell id="Ak-s-6grsqpdPACAX_Eb-48" value="Conv 2D 3x3" style="text;html=1;align=center;verticalAlign=middle;resizable=0;points=[];autosize=1;strokeColor=none;fillColor=none;fontColor=#1A1A1A;fontSize=14;fontStyle=1" vertex="1" parent="1">
          <mxGeometry x="681" y="413" width="110" height="30" as="geometry" />
        </mxCell>
        <mxCell id="Ak-s-6grsqpdPACAX_Eb-49" value="DeConv 2D 3x3" style="text;html=1;align=center;verticalAlign=middle;resizable=0;points=[];autosize=1;strokeColor=none;fillColor=none;fontColor=#1A1A1A;fontSize=14;fontStyle=1" vertex="1" parent="1">
          <mxGeometry x="671" y="454" width="130" height="30" as="geometry" />
        </mxCell>
        <mxCell id="Ak-s-6grsqpdPACAX_Eb-50" value="Skip Connection" style="text;html=1;align=center;verticalAlign=middle;resizable=0;points=[];autosize=1;strokeColor=none;fillColor=none;fontColor=#1A1A1A;fontSize=14;fontStyle=1" vertex="1" parent="1">
          <mxGeometry x="671" y="494" width="130" height="30" as="geometry" />
        </mxCell>
        <mxCell id="Ak-s-6grsqpdPACAX_Eb-51" value="Input Image" style="text;html=1;align=center;verticalAlign=middle;resizable=0;points=[];autosize=1;strokeColor=none;fillColor=none;fontColor=#1A1A1A;fontSize=14;fontStyle=1;rotation=-90;" vertex="1" parent="1">
          <mxGeometry x="50" y="168" width="100" height="30" as="geometry" />
        </mxCell>
        <mxCell id="Ak-s-6grsqpdPACAX_Eb-52" value="Output Mask" style="text;html=1;align=center;verticalAlign=middle;resizable=0;points=[];autosize=1;strokeColor=none;fillColor=none;fontColor=#1A1A1A;fontSize=14;fontStyle=1;rotation=-90;" vertex="1" parent="1">
          <mxGeometry x="655" y="168" width="110" height="30" as="geometry" />
        </mxCell>
        <mxCell id="Ak-s-6grsqpdPACAX_Eb-53" value="360x640" style="text;html=1;align=center;verticalAlign=middle;resizable=0;points=[];autosize=1;strokeColor=none;fillColor=none;fontColor=#1A1A1A;rotation=-90;fontSize=10;" vertex="1" parent="1">
          <mxGeometry x="80" y="243" width="60" height="30" as="geometry" />
        </mxCell>
        <mxCell id="Ak-s-6grsqpdPACAX_Eb-54" value="360x640" style="text;html=1;align=center;verticalAlign=middle;resizable=0;points=[];autosize=1;strokeColor=none;fillColor=none;fontColor=#1A1A1A;rotation=-90;fontSize=10;" vertex="1" parent="1">
          <mxGeometry x="118" y="243" width="60" height="30" as="geometry" />
        </mxCell>
        <mxCell id="Ak-s-6grsqpdPACAX_Eb-55" value="3" style="text;html=1;align=center;verticalAlign=middle;resizable=0;points=[];autosize=1;strokeColor=none;fillColor=none;fontColor=#1A1A1A;" vertex="1" parent="1">
          <mxGeometry x="103" y="60" width="30" height="30" as="geometry" />
        </mxCell>
        <mxCell id="Ak-s-6grsqpdPACAX_Eb-56" value="32" style="text;html=1;align=center;verticalAlign=middle;resizable=0;points=[];autosize=1;strokeColor=none;fillColor=none;fontColor=#1A1A1A;" vertex="1" parent="1">
          <mxGeometry x="143" y="60" width="40" height="30" as="geometry" />
        </mxCell>
        <mxCell id="Ak-s-6grsqpdPACAX_Eb-57" value="32+32" style="text;html=1;align=center;verticalAlign=middle;resizable=0;points=[];autosize=1;strokeColor=none;fillColor=none;fontColor=#1A1A1A;" vertex="1" parent="1">
          <mxGeometry x="552" y="61" width="60" height="30" as="geometry" />
        </mxCell>
        <mxCell id="Ak-s-6grsqpdPACAX_Eb-58" value="32" style="text;html=1;align=center;verticalAlign=middle;resizable=0;points=[];autosize=1;strokeColor=none;fillColor=none;fontColor=#1A1A1A;" vertex="1" parent="1">
          <mxGeometry x="631" y="60" width="40" height="30" as="geometry" />
        </mxCell>
        <mxCell id="Ak-s-6grsqpdPACAX_Eb-59" value="1" style="text;html=1;align=center;verticalAlign=middle;resizable=0;points=[];autosize=1;strokeColor=none;fillColor=none;fontColor=#1A1A1A;" vertex="1" parent="1">
          <mxGeometry x="671" y="60" width="30" height="30" as="geometry" />
        </mxCell>
        <mxCell id="Ak-s-6grsqpdPACAX_Eb-60" value="360x640" style="text;html=1;align=center;verticalAlign=middle;resizable=0;points=[];autosize=1;strokeColor=none;fillColor=none;fontColor=#1A1A1A;rotation=-90;fontSize=10;" vertex="1" parent="1">
          <mxGeometry x="533" y="243" width="60" height="30" as="geometry" />
        </mxCell>
        <mxCell id="Ak-s-6grsqpdPACAX_Eb-61" value="360x640" style="text;html=1;align=center;verticalAlign=middle;resizable=0;points=[];autosize=1;strokeColor=none;fillColor=none;fontColor=#1A1A1A;rotation=-90;fontSize=10;" vertex="1" parent="1">
          <mxGeometry x="608" y="243" width="60" height="30" as="geometry" />
        </mxCell>
        <mxCell id="Ak-s-6grsqpdPACAX_Eb-62" value="360x640" style="text;html=1;align=center;verticalAlign=middle;resizable=0;points=[];autosize=1;strokeColor=none;fillColor=none;fontColor=#1A1A1A;rotation=-90;fontSize=10;" vertex="1" parent="1">
          <mxGeometry x="648" y="243" width="60" height="30" as="geometry" />
        </mxCell>
        <mxCell id="Ak-s-6grsqpdPACAX_Eb-63" value="180x320" style="text;html=1;align=center;verticalAlign=middle;resizable=0;points=[];autosize=1;strokeColor=none;fillColor=none;fontColor=#1A1A1A;rotation=-90;fontSize=10;" vertex="1" parent="1">
          <mxGeometry x="118" y="383" width="60" height="30" as="geometry" />
        </mxCell>
        <mxCell id="Ak-s-6grsqpdPACAX_Eb-64" value="180x320" style="text;html=1;align=center;verticalAlign=middle;resizable=0;points=[];autosize=1;strokeColor=none;fillColor=none;fontColor=#1A1A1A;rotation=-90;fontSize=10;" vertex="1" parent="1">
          <mxGeometry x="210" y="383" width="60" height="30" as="geometry" />
        </mxCell>
        <mxCell id="Ak-s-6grsqpdPACAX_Eb-65" value="180x320" style="text;html=1;align=center;verticalAlign=middle;resizable=0;points=[];autosize=1;strokeColor=none;fillColor=none;fontColor=#1A1A1A;rotation=-90;fontSize=10;" vertex="1" parent="1">
          <mxGeometry x="418" y="383" width="60" height="30" as="geometry" />
        </mxCell>
        <mxCell id="Ak-s-6grsqpdPACAX_Eb-66" value="180x320" style="text;html=1;align=center;verticalAlign=middle;resizable=0;points=[];autosize=1;strokeColor=none;fillColor=none;fontColor=#1A1A1A;rotation=-90;fontSize=10;" vertex="1" parent="1">
          <mxGeometry x="542" y="383" width="60" height="30" as="geometry" />
        </mxCell>
        <mxCell id="Ak-s-6grsqpdPACAX_Eb-67" value="90x160" style="text;html=1;align=center;verticalAlign=middle;resizable=0;points=[];autosize=1;strokeColor=none;fillColor=none;fontColor=#1A1A1A;rotation=-90;fontSize=10;" vertex="1" parent="1">
          <mxGeometry x="210" y="483" width="60" height="30" as="geometry" />
        </mxCell>
        <mxCell id="Ak-s-6grsqpdPACAX_Eb-68" value="90x160" style="text;html=1;align=center;verticalAlign=middle;resizable=0;points=[];autosize=1;strokeColor=none;fillColor=none;fontColor=#1A1A1A;rotation=-90;fontSize=10;" vertex="1" parent="1">
          <mxGeometry x="310" y="483" width="60" height="30" as="geometry" />
        </mxCell>
        <mxCell id="Ak-s-6grsqpdPACAX_Eb-69" value="90x160" style="text;html=1;align=center;verticalAlign=middle;resizable=0;points=[];autosize=1;strokeColor=none;fillColor=none;fontColor=#1A1A1A;rotation=-90;fontSize=10;" vertex="1" parent="1">
          <mxGeometry x="443" y="483" width="60" height="30" as="geometry" />
        </mxCell>
        <mxCell id="Ak-s-6grsqpdPACAX_Eb-70" value="64" style="text;html=1;align=center;verticalAlign=middle;resizable=0;points=[];autosize=1;strokeColor=none;fillColor=none;fontColor=#1A1A1A;horizontal=1;" vertex="1" parent="1">
          <mxGeometry x="241" y="293" width="40" height="30" as="geometry" />
        </mxCell>
        <mxCell id="Ak-s-6grsqpdPACAX_Eb-71" value="128" style="text;html=1;align=center;verticalAlign=middle;resizable=0;points=[];autosize=1;strokeColor=none;fillColor=none;fontColor=#1A1A1A;" vertex="1" parent="1">
          <mxGeometry x="355" y="427" width="40" height="30" as="geometry" />
        </mxCell>
        <mxCell id="Ak-s-6grsqpdPACAX_Eb-73" value="64 + 64" style="text;html=1;align=center;verticalAlign=middle;resizable=0;points=[];autosize=1;strokeColor=none;fillColor=none;fontColor=#1A1A1A;horizontal=1;" vertex="1" parent="1">
          <mxGeometry x="450" y="293" width="60" height="30" as="geometry" />
        </mxCell>
      </root>
    </mxGraphModel>
  </diagram>
</mxfile>
